<svg width="79" height="97" viewBox="0 0 79 97" fill="none" xmlns="http://www.w3.org/2000/svg">
<path d="M53.1818 31C52.9394 27.9697 51.803 25.6061 49.7727 23.9091C47.7727 22.2121 44.7273 21.3636 40.6364 21.3636C38.0303 21.3636 35.8939 21.6818 34.2273 22.3182C32.5909 22.9242 31.3788 23.7576 30.5909 24.8182C29.803 25.8788 29.3939 27.0909 29.3636 28.4545C29.303 29.5758 29.5 30.5909 29.9545 31.5C30.4394 32.3788 31.197 33.1818 32.2273 33.9091C33.2576 34.6061 34.5758 35.2424 36.1818 35.8182C37.7879 36.3939 39.697 36.9091 41.9091 37.3636L49.5455 39C54.697 40.0909 59.1061 41.5303 62.7727 43.3182C66.4394 45.1061 69.4394 47.2121 71.7727 49.6364C74.1061 52.0303 75.8182 54.7273 76.9091 57.7273C78.0303 60.7273 78.6061 64 78.6364 67.5455C78.6061 73.6667 77.0758 78.8485 74.0455 83.0909C71.0152 87.3333 66.6818 90.5606 61.0455 92.7727C55.4394 94.9848 48.697 96.0909 40.8182 96.0909C32.7273 96.0909 25.6667 94.8939 19.6364 92.5C13.6364 90.1061 8.9697 86.4242 5.63636 81.4545C2.33333 76.4545 0.666667 70.0606 0.636364 62.2727H24.6364C24.7879 65.1212 25.5 67.5152 26.7727 69.4545C28.0455 71.3939 29.8333 72.8636 32.1364 73.8636C34.4697 74.8636 37.2424 75.3636 40.4545 75.3636C43.1515 75.3636 45.4091 75.0303 47.2273 74.3636C49.0455 73.697 50.4242 72.7727 51.3636 71.5909C52.303 70.4091 52.7879 69.0606 52.8182 67.5455C52.7879 66.1212 52.3182 64.8788 51.4091 63.8182C50.5303 62.7273 49.0758 61.7576 47.0455 60.9091C45.0152 60.0303 42.2727 59.2121 38.8182 58.4545L29.5455 56.4545C21.303 54.6667 14.803 51.6818 10.0455 47.5C5.31818 43.2879 2.9697 37.5455 3 30.2727C2.9697 24.3636 4.54545 19.197 7.72727 14.7727C10.9394 10.3182 15.3788 6.84848 21.0455 4.36363C26.7424 1.87878 33.2727 0.63636 40.6364 0.63636C48.1515 0.63636 54.6515 1.89394 60.1364 4.40909C65.6212 6.92424 69.8485 10.4697 72.8182 15.0455C75.8182 19.5909 77.3333 24.9091 77.3636 31H53.1818Z" fill="#42AFEB"/>
</svg>
